<svg height="256.04614212628405" width="350" style="width: 350px; height: 256.046px; position: absolute; top: 50%; left: 50%; transform: translate(-50%, -50%) scale(1); z-index: 0; cursor: pointer; overflow: visible;"><defs id="SvgjsDefs1001"></defs><g id="SvgjsG1007" featurekey="pxMwYC-0" transform="matrix(-2.2950819672131146,0,0,2.2950819672131146,247.2950819672131,-2.4539181443511495)" fill="#0c8244"><title xmlns="http://www.w3.org/2000/svg">invest</title><g xmlns="http://www.w3.org/2000/svg"><path d="M27,25H22A10,10,0,0,1,12,15a1,1,0,0,1,1-1h5A10,10,0,0,1,28,24,1,1,0,0,1,27,25ZM14.06,16A8,8,0,0,0,22,23h3.94A8,8,0,0,0,18,16Z"></path><path d="M43.23,22.9A10,10,0,0,1,36.16,20a1.09,1.09,0,0,1-.07-1.48L39.63,15a10,10,0,0,1,14.14,0,1.08,1.08,0,0,1,.33.74,1.05,1.05,0,0,1-.26.74L50.3,20A10,10,0,0,1,43.23,22.9Zm-5-3.74a8,8,0,0,0,10.63-.6l2.79-2.79a8,8,0,0,0-10.64.6Z"></path><path d="M32.07,17.93a1,1,0,0,1-.71-.29L29.23,15.5a10,10,0,0,1,0-14.14,1,1,0,0,1,1.41,0L32.77,3.5a10,10,0,0,1,0,14.14A1,1,0,0,1,32.07,17.93ZM30,3.53a8,8,0,0,0,.66,10.56L32,15.47a8,8,0,0,0-.66-10.56Z"></path><path d="M32,30a1,1,0,0,1-.71-.29l-5-5a1,1,0,0,1,1.42-1.42l5,5a1,1,0,0,1,0,1.42A1,1,0,0,1,32,30Z"></path><path d="M32,25a1,1,0,0,1-.71-.29,1,1,0,0,1,0-1.42l5-5a1,1,0,0,1,1.42,1.42l-5,5A1,1,0,0,1,32,25Z"></path><path d="M32,35.5a1,1,0,0,1-1-1V17a1,1,0,0,1,2,0V34.5A1,1,0,0,1,32,35.5Z"></path><path d="M36,42H28a1,1,0,0,1-.78-.37L23.44,36.9a2,2,0,0,1,.4-2.89,2,2,0,0,1,1.77-.27,6.45,6.45,0,0,1,.84.37A2.94,2.94,0,0,0,28,34.5a3,3,0,0,0,1.55-.39,5.21,5.21,0,0,1,4.89,0,3.3,3.3,0,0,0,3.11,0,5,5,0,0,1,.84-.37,2,2,0,0,1,1.77.27A2,2,0,0,1,41,35.65a2,2,0,0,1-.44,1.25l-3.78,4.73A1,1,0,0,1,36,42Zm-7.52-2h7L39,35.65a4.49,4.49,0,0,0-.56.24,5.21,5.21,0,0,1-4.89,0,3.3,3.3,0,0,0-3.11,0,5.21,5.21,0,0,1-4.89,0,3.89,3.89,0,0,0-.58-.25h0Z"></path><path d="M42.74,63H21.26a7.25,7.25,0,0,1-4.92-12.59l11-10.14A1,1,0,0,1,28,40h8a1,1,0,0,1,.68.27l11,10.14A7.25,7.25,0,0,1,42.74,63ZM28.39,42l-10.7,9.88A5.26,5.26,0,0,0,21.26,61H42.74a5.26,5.26,0,0,0,3.57-9.12L35.61,42Z"></path><path d="M32,56H30a1,1,0,0,1,0-2h2a1,1,0,0,0,0-2,3,3,0,0,1,0-6h2a1,1,0,0,1,0,2H32a1,1,0,0,0,0,2,3,3,0,0,1,0,6Z"></path><path d="M32,48a1,1,0,0,1-1-1V45a1,1,0,0,1,2,0v2A1,1,0,0,1,32,48Z"></path><path d="M32,58a1,1,0,0,1-1-1V55a1,1,0,0,1,2,0v2A1,1,0,0,1,32,58Z"></path><path d="M39,42H25a1,1,0,0,1,0-2H39a1,1,0,0,1,0,2Z"></path><path d="M39,42a1,1,0,0,1-.55-1.83l3-2a1,1,0,0,1,1.1,1.66l-3,2A.94.94,0,0,1,39,42Z"></path><path d="M42,44a.94.94,0,0,1-.55-.17l-3-2a1,1,0,1,1,1.1-1.66l3,2A1,1,0,0,1,42,44Z"></path><path d="M4,33a1,1,0,0,1-1-1,1,1,0,0,0-1-1,1,1,0,0,1,0-2,1,1,0,0,0,1-1,1,1,0,0,1,2,0,1,1,0,0,0,1,1,1,1,0,0,1,0,2,1,1,0,0,0-1,1A1,1,0,0,1,4,33Z"></path><path d="M58,24a1,1,0,0,1-1-1,1,1,0,0,0-1-1,1,1,0,0,1,0-2,1,1,0,0,0,1-1,1,1,0,0,1,2,0,1,1,0,0,0,1,1,1,1,0,0,1,0,2,1,1,0,0,0-1,1A1,1,0,0,1,58,24Z"></path><path d="M50,40a1,1,0,0,1-1-1,1,1,0,0,0-1-1,1,1,0,0,1,0-2,1,1,0,0,0,1-1,1,1,0,0,1,2,0,1,1,0,0,0,1,1,1,1,0,0,1,0,2,1,1,0,0,0-1,1A1,1,0,0,1,50,40Z"></path><path d="M16,46a1,1,0,0,1-1-1,1,1,0,0,0-1-1,1,1,0,0,1,0-2,1,1,0,0,0,1-1,1,1,0,0,1,2,0,1,1,0,0,0,1,1,1,1,0,0,1,0,2,1,1,0,0,0-1,1A1,1,0,0,1,16,46Z"></path><path d="M46,11a1,1,0,0,1-1-1,1,1,0,0,0-1-1,1,1,0,0,1,0-2,1,1,0,0,0,1-1,1,1,0,0,1,2,0,1,1,0,0,0,1,1,1,1,0,0,1,0,2,1,1,0,0,0-1,1A1,1,0,0,1,46,11Z"></path><path d="M16,11a1,1,0,0,1-1-1,1,1,0,0,0-1-1,1,1,0,0,1,0-2,1,1,0,0,0,1-1,1,1,0,0,1,2,0,1,1,0,0,0,1,1,1,1,0,0,1,0,2,1,1,0,0,0-1,1A1,1,0,0,1,16,11Z"></path><circle cx="39" cy="4" r="1"></circle><circle cx="54" cy="50" r="1"></circle><circle cx="11" cy="52" r="1"></circle><circle cx="61" cy="35" r="1"></circle><circle cx="39" cy="28" r="1"></circle><circle cx="7" cy="40" r="1"></circle><circle cx="22" cy="30" r="1"></circle><circle cx="9" cy="19" r="1"></circle></g></g><g id="SvgjsG1008" featurekey="Vx5QiU-0" transform="matrix(3.6097360076816423,0,0,3.6097360076816423,-5.631186244176351,142.57961986557126)" fill="#084f54"><path d="M1.56 5.380000000000001 l6.04 0 q3.26 0 5.34 1.84 q1.12 0.98 1.7 2.37 t0.58 3.09 q0 1.66 -0.6 3.09 t-1.68 2.41 q-1 0.88 -2.37 1.35 t-2.97 0.47 l-6.04 0 l0 -14.62 z M7.6 17.259999999999998 q1.88 0 3.15 -0.98 t1.27 -3.58 t-1.28 -3.58 t-3.14 -0.98 l-2.88 0 l0 9.12 l2.88 0 z M20.53 19.74 q-1.37 -0.54 -2.35 -1.83 t-0.98 -3.37 t0.99 -3.36 t2.37 -1.82 t2.62 -0.54 q1.44 0 2.74 0.64 t2.13 1.88 t0.87 2.94 q0 0.52 -0.02 0.9 t-0.04 0.48 l-8.68 0 q0.24 1.16 1.2 1.58 t1.8 0.42 q1.08 0 1.72 -0.39 t1.1 -0.89 l2.32 1.34 q-1.88 2.56 -5.14 2.56 q-1.28 0 -2.65 -0.54 z M21.14 12.05 q-0.78 0.61 -0.88 1.49 l5.5 0 q-0.06 -0.52 -0.4 -1 t-0.91 -0.79 t-1.29 -0.31 q-1.24 0 -2.02 0.61 z M34.3 10.1 q0.38 -0.52 1.31 -0.93 t2.03 -0.41 q1.7 0 2.95 0.76 t1.91 2.07 t0.66 2.91 t-0.66 2.91 t-1.91 2.07 t-2.95 0.76 q-1.14 0 -2.01 -0.39 t-1.33 -0.99 l0 4.68 l-2.96 0 l0 -14.54 l2.96 0 l0 1.1 z M35 16.75 q0.82 0.87 2.2 0.87 q1.4 0 2.21 -0.87 t0.81 -2.25 q0 -1.34 -0.83 -2.22 t-2.19 -0.88 q-1.4 0 -2.21 0.83 t-0.81 2.27 q0 1.38 0.82 2.25 z M48.05 19.49 q-1.37 -0.77 -2.17 -2.09 t-0.8 -2.88 q0 -1.54 0.8 -2.86 t2.17 -2.09 t2.99 -0.77 t3 0.77 t2.19 2.09 t0.81 2.86 q0 1.56 -0.81 2.88 t-2.19 2.09 t-3 0.77 t-2.99 -0.77 z M49.519999999999996 11.83 q-0.7 0.41 -1.1 1.12 t-0.4 1.57 q0 0.9 0.39 1.61 t1.08 1.12 t1.55 0.41 q0.84 0 1.53 -0.41 t1.09 -1.13 t0.4 -1.6 q0 -0.86 -0.4 -1.57 t-1.09 -1.12 t-1.53 -0.41 q-0.82 0 -1.52 0.41 z M68.73 6.08 q1.33 0.7 2.05 1.89 t0.72 2.65 t-0.67 2.62 t-2.01 1.83 t-3.24 0.67 l-2.76 0 l0 4.26 l-3.16 0 l0 -14.62 l5.94 0 q1.8 0 3.13 0.7 z M67.74000000000001 12.3 q0.58 -0.7 0.58 -1.68 q0 -0.64 -0.3 -1.21 t-0.89 -0.93 t-1.41 -0.36 l-2.9 0 l0 4.88 l3.22 0 q1.12 0 1.7 -0.7 z M81.54 18.9 q-0.38 0.52 -1.31 0.93 t-2.03 0.41 q-1.7 0 -2.95 -0.76 t-1.91 -2.07 t-0.66 -2.91 t0.66 -2.91 t1.91 -2.07 t2.95 -0.76 q1.14 0 2.01 0.39 t1.33 0.99 l0 -1.14 l2.96 0 l0 11 l-2.96 0 l0 -1.1 z M80.84 12.25 q-0.82 -0.87 -2.2 -0.87 q-1.4 0 -2.21 0.87 t-0.81 2.25 q0 1.34 0.83 2.22 t2.19 0.88 q1.4 0 2.21 -0.83 t0.81 -2.27 q0 -1.38 -0.82 -2.25 z M89.08000000000001 24.12 l1.9 -4.52 l-4.72 -10.56 l3.46 0 l2.78 7 l2.56 -7 l3.46 0 l-6.14 15.08 l-3.3 0 z"></path></g><g id="SvgjsG1009" featurekey="aAUSXE-0" transform="matrix(1.0325702175635658,0,0,1.0325702175635658,33.40984190434153,234.9197544508084)" fill="#0c8244"><path d="M4.7 11.38 l7 0 l0 2.76 l-7 0 l0 3.12 l7.92 0 l0 2.74 l-11.08 0 l0 -14.62 l11.08 0 l0 2.74 l-7.92 0 l0 3.26 z M32.848 4.92 l8.02 15.08 l-3.46 0 l-1.16 -2.24 l-6.82 0 l-1.12 2.24 l-3.48 0 z M34.727999999999994 15.059999999999999 l-1.88 -3.82 l-1.86 3.82 l3.74 0 z M56.076 16.87 q1.42 0.57 2.6 0.57 q1.24 0 1.97 -0.48 t0.73 -1.14 q0 -0.54 -0.43 -0.88 t-1.09 -0.51 t-1.74 -0.37 q-1.44 -0.24 -2.64 -0.62 t-2.18 -1.32 t-0.98 -2.54 q0 -2.36 1.73 -3.39 t4.07 -1.03 q1.8 0 3.13 0.49 t2.65 1.47 l-1.76 2.4 q-0.98 -0.7 -2.04 -1.1 t-2.1 -0.4 q-0.92 0 -1.72 0.33 t-0.8 1.11 q0 0.48 0.41 0.77 t0.9 0.42 t1.59 0.37 l0.72 0.14 q1.66 0.32 2.75 0.71 t1.89 1.31 t0.8 2.56 q0 2.22 -1.57 3.38 t-4.25 1.16 q-3.92 0 -6.6 -2.28 l1.68 -2.42 q0.86 0.72 2.28 1.29 z M84.564 14.46 l0 5.54 l-3.16 0 l0 -5.54 l-5.76 -9.06 l3.7 0 l3.64 5.9 l3.68 -5.9 l3.7 0 z M103.492 20 l0 -14.62 l3.16 0 l0 14.62 l-3.16 0 z M124.56 20 l-3.14 0 l0 -15.08 l10.08 8.92 l0 -8.44 l3.16 0 l0 15.06 l-10.1 -8.78 l0 8.32 z M163.928 13.04 q0 0.24 -0.04 0.84 q-0.16 1.84 -1.23 3.3 t-2.76 2.28 t-3.65 0.82 q-2.14 0 -3.95 -1.02 t-2.87 -2.76 t-1.06 -3.8 q0 -2.04 1.06 -3.79 t2.87 -2.77 t3.95 -1.02 q2.02 0 3.77 0.95 t2.85 2.57 l-2.72 1.58 q-0.72 -0.98 -1.74 -1.6 t-2.16 -0.62 q-1.28 0 -2.37 0.65 t-1.73 1.73 t-0.64 2.32 t0.64 2.33 t1.73 1.74 t2.37 0.65 q0.92 0 1.82 -0.37 t1.56 -1.01 t0.88 -1.4 l-5.46 0 l0 -2.78 l8.84 0 q0.04 0.8 0.04 1.18 z M205.64399999999998 20 l-10.84 0 l0 -14.62 l3.18 0 l0 11.88 l7.66 0 l0 2.74 z M219.15199999999996 20 l0 -14.62 l3.16 0 l0 14.62 l-3.16 0 z M240.23999999999998 11.34 l6.98 0 l0 2.74 l-6.98 0 l0 5.92 l-3.18 0 l0 -14.62 l11.08 0 l0 2.74 l-7.9 0 l0 3.22 z M264.78799999999995 11.38 l7 0 l0 2.76 l-7 0 l0 3.12 l7.92 0 l0 2.74 l-11.08 0 l0 -14.62 l11.08 0 l0 2.74 l-7.92 0 l0 3.26 z"></path></g></svg>